<mxfile host="Electron" agent="Mozilla/5.0 (X11; Linux x86_64) AppleWebKit/537.36 (KHTML, like Gecko) draw.io/24.7.17 Chrome/128.0.6613.36 Electron/32.0.1 Safari/537.36" version="24.7.17">
  <diagram name="Page-1" id="fCAUQ6TRpzPfALIMa48f">
    <mxGraphModel dx="1114" dy="767" grid="1" gridSize="10" guides="1" tooltips="1" connect="1" arrows="1" fold="1" page="1" pageScale="1" pageWidth="850" pageHeight="1100" math="0" shadow="0">
      <root>
        <mxCell id="0" />
        <mxCell id="1" parent="0" />
        <mxCell id="EQdiGXUYlJfRy9j4Im2A-2" value="Tier1" style="swimlane;whiteSpace=wrap;html=1;" vertex="1" parent="1">
          <mxGeometry x="110" y="290" width="200" height="200" as="geometry" />
        </mxCell>
        <mxCell id="EQdiGXUYlJfRy9j4Im2A-4" value="default base image" style="shape=note;whiteSpace=wrap;html=1;backgroundOutline=1;darkOpacity=0.05;" vertex="1" parent="EQdiGXUYlJfRy9j4Im2A-2">
          <mxGeometry x="50" y="50" width="80" height="100" as="geometry" />
        </mxCell>
        <mxCell id="EQdiGXUYlJfRy9j4Im2A-3" value="&lt;b&gt;General base images&lt;/b&gt;" style="text;html=1;align=center;verticalAlign=middle;whiteSpace=wrap;rounded=0;" vertex="1" parent="1">
          <mxGeometry x="300" y="200" width="140" height="30" as="geometry" />
        </mxCell>
        <mxCell id="EQdiGXUYlJfRy9j4Im2A-5" value="&lt;h1 style=&quot;margin-top: 0px;&quot;&gt;root base image&lt;/h1&gt;&lt;p&gt;Contains:&lt;/p&gt;&lt;p&gt;&lt;/p&gt;&lt;ul&gt;&lt;li&gt;application user and group&lt;/li&gt;&lt;li&gt;default repositories&lt;/li&gt;&lt;li&gt;default certificates&lt;/li&gt;&lt;li&gt;application and data directories&lt;/li&gt;&lt;/ul&gt;&lt;p&gt;&lt;/p&gt;" style="text;html=1;whiteSpace=wrap;overflow=hidden;rounded=0;" vertex="1" parent="1">
          <mxGeometry x="110" y="510" width="200" height="150" as="geometry" />
        </mxCell>
        <mxCell id="EQdiGXUYlJfRy9j4Im2A-15" style="edgeStyle=orthogonalEdgeStyle;rounded=0;orthogonalLoop=1;jettySize=auto;html=1;entryX=1;entryY=0.5;entryDx=0;entryDy=0;" edge="1" parent="1" source="EQdiGXUYlJfRy9j4Im2A-6" target="EQdiGXUYlJfRy9j4Im2A-2">
          <mxGeometry relative="1" as="geometry" />
        </mxCell>
        <mxCell id="EQdiGXUYlJfRy9j4Im2A-6" value="Tier2" style="swimlane;whiteSpace=wrap;html=1;" vertex="1" parent="1">
          <mxGeometry x="390" y="290" width="200" height="830" as="geometry" />
        </mxCell>
        <mxCell id="EQdiGXUYlJfRy9j4Im2A-7" value="nginx" style="shape=note;whiteSpace=wrap;html=1;backgroundOutline=1;darkOpacity=0.05;" vertex="1" parent="EQdiGXUYlJfRy9j4Im2A-6">
          <mxGeometry x="60" y="50" width="80" height="100" as="geometry" />
        </mxCell>
        <mxCell id="EQdiGXUYlJfRy9j4Im2A-8" value="nodejs" style="shape=note;whiteSpace=wrap;html=1;backgroundOutline=1;darkOpacity=0.05;" vertex="1" parent="EQdiGXUYlJfRy9j4Im2A-6">
          <mxGeometry x="60" y="180" width="80" height="100" as="geometry" />
        </mxCell>
        <mxCell id="EQdiGXUYlJfRy9j4Im2A-9" value="openjdk" style="shape=note;whiteSpace=wrap;html=1;backgroundOutline=1;darkOpacity=0.05;" vertex="1" parent="EQdiGXUYlJfRy9j4Im2A-6">
          <mxGeometry x="60" y="310" width="80" height="100" as="geometry" />
        </mxCell>
        <mxCell id="EQdiGXUYlJfRy9j4Im2A-10" value="python" style="shape=note;whiteSpace=wrap;html=1;backgroundOutline=1;darkOpacity=0.05;" vertex="1" parent="EQdiGXUYlJfRy9j4Im2A-6">
          <mxGeometry x="60" y="440" width="80" height="100" as="geometry" />
        </mxCell>
        <mxCell id="EQdiGXUYlJfRy9j4Im2A-11" value="dotnet" style="shape=note;whiteSpace=wrap;html=1;backgroundOutline=1;darkOpacity=0.05;" vertex="1" parent="EQdiGXUYlJfRy9j4Im2A-6">
          <mxGeometry x="60" y="570" width="80" height="100" as="geometry" />
        </mxCell>
        <mxCell id="EQdiGXUYlJfRy9j4Im2A-12" value="etcetera" style="shape=note;whiteSpace=wrap;html=1;backgroundOutline=1;darkOpacity=0.05;" vertex="1" parent="EQdiGXUYlJfRy9j4Im2A-6">
          <mxGeometry x="60" y="700" width="80" height="100" as="geometry" />
        </mxCell>
        <mxCell id="EQdiGXUYlJfRy9j4Im2A-13" value="&lt;h1 style=&quot;margin-top: 0px;&quot;&gt;runtime images&lt;/h1&gt;&lt;p&gt;Contains:&lt;/p&gt;&lt;p&gt;&lt;/p&gt;&lt;ul&gt;&lt;li&gt;runtime environments for applications and tools&lt;/li&gt;&lt;li&gt;application servers like nginx, httpd, etc ...&lt;/li&gt;&lt;/ul&gt;&lt;p&gt;&lt;/p&gt;" style="text;html=1;whiteSpace=wrap;overflow=hidden;rounded=0;" vertex="1" parent="1">
          <mxGeometry x="390" y="1150" width="200" height="150" as="geometry" />
        </mxCell>
        <mxCell id="EQdiGXUYlJfRy9j4Im2A-20" style="edgeStyle=orthogonalEdgeStyle;rounded=0;orthogonalLoop=1;jettySize=auto;html=1;entryX=1;entryY=0.5;entryDx=0;entryDy=0;" edge="1" parent="1" source="EQdiGXUYlJfRy9j4Im2A-14" target="EQdiGXUYlJfRy9j4Im2A-6">
          <mxGeometry relative="1" as="geometry" />
        </mxCell>
        <mxCell id="EQdiGXUYlJfRy9j4Im2A-14" value="Tier3" style="swimlane;whiteSpace=wrap;html=1;" vertex="1" parent="1">
          <mxGeometry x="640" y="290" width="200" height="560" as="geometry" />
        </mxCell>
        <mxCell id="EQdiGXUYlJfRy9j4Im2A-16" value="ansible" style="shape=note;whiteSpace=wrap;html=1;backgroundOutline=1;darkOpacity=0.05;" vertex="1" parent="EQdiGXUYlJfRy9j4Im2A-14">
          <mxGeometry x="60" y="40" width="80" height="100" as="geometry" />
        </mxCell>
        <mxCell id="EQdiGXUYlJfRy9j4Im2A-17" value="Maven" style="shape=note;whiteSpace=wrap;html=1;backgroundOutline=1;darkOpacity=0.05;" vertex="1" parent="EQdiGXUYlJfRy9j4Im2A-14">
          <mxGeometry x="60" y="170" width="80" height="100" as="geometry" />
        </mxCell>
        <mxCell id="EQdiGXUYlJfRy9j4Im2A-18" value="Gradel" style="shape=note;whiteSpace=wrap;html=1;backgroundOutline=1;darkOpacity=0.05;" vertex="1" parent="EQdiGXUYlJfRy9j4Im2A-14">
          <mxGeometry x="60" y="300" width="80" height="100" as="geometry" />
        </mxCell>
        <mxCell id="EQdiGXUYlJfRy9j4Im2A-19" value="etcetera" style="shape=note;whiteSpace=wrap;html=1;backgroundOutline=1;darkOpacity=0.05;" vertex="1" parent="EQdiGXUYlJfRy9j4Im2A-14">
          <mxGeometry x="60" y="430" width="80" height="100" as="geometry" />
        </mxCell>
        <mxCell id="EQdiGXUYlJfRy9j4Im2A-21" value="&lt;h1 style=&quot;margin-top: 0px;&quot;&gt;tools&lt;/h1&gt;&lt;p&gt;Contains:&lt;/p&gt;&lt;p&gt;&lt;/p&gt;&lt;ul&gt;&lt;li&gt;build tools&lt;/li&gt;&lt;li&gt;SCM tools&lt;/li&gt;&lt;li&gt;other tools&lt;/li&gt;&lt;/ul&gt;&lt;p&gt;&lt;/p&gt;" style="text;html=1;whiteSpace=wrap;overflow=hidden;rounded=0;" vertex="1" parent="1">
          <mxGeometry x="640" y="880" width="200" height="150" as="geometry" />
        </mxCell>
      </root>
    </mxGraphModel>
  </diagram>
</mxfile>
